<svg xmlns="http://www.w3.org/2000/svg" xmlns:xlink="http://www.w3.org/1999/xlink" width="105.079" height="71.382" viewBox="0 0 105.079 71.382">
  <defs>
    <clipPath id="clip-path">
      <rect id="Rectángulo_8887" data-name="Rectángulo 8887" width="105.079" height="71.382" fill="none"/>
    </clipPath>
  </defs>
  <g id="Grupo_66612" data-name="Grupo 66612" transform="translate(0 0)">
    <g id="Grupo_66611" data-name="Grupo 66611" transform="translate(0 0)" clip-path="url(#clip-path)">
      <path id="Trazado_138058" data-name="Trazado 138058" d="M8.406,38.5S-1.437,51.247,6.3,52.93s7.636-5.332,20.574-.261" transform="translate(-1.173 -13.547)" fill="#f04f4c"/>
      <path id="Trazado_138059" data-name="Trazado 138059" d="M7.79,54.211a12.372,12.372,0,0,1-2.637-.3A4.857,4.857,0,0,1,1.312,50.84C-.424,46.079,5.68,37.974,6.382,37.065l2.41,1.86C6.371,42.064,3.339,47.513,4.172,49.8c.134.366.447.881,1.629,1.137a8.833,8.833,0,0,0,6.047-.783c3.051-1.237,6.509-2.641,14.759.592L25.5,53.581c-7.119-2.791-9.734-1.73-12.5-.606a13.013,13.013,0,0,1-5.2,1.236" transform="translate(-0.353 -13.042)" fill="#3d4451"/>
      <path id="Trazado_138060" data-name="Trazado 138060" d="M135.109,57.829l-6.687,24.5s-.519,9.4,8.824,9.4S144.512,81.6,144.512,81.6Z" transform="translate(-45.185 -20.348)" fill="#c6a47f"/>
      <path id="Trazado_138061" data-name="Trazado 138061" d="M83.593,18.259a6.717,6.717,0,0,1,.167,1.486,6.388,6.388,0,1,1-12.772,0,6.563,6.563,0,0,1,3.438-5.8,17.1,17.1,0,0,0-2.383-.17A17.65,17.65,0,0,0,54.613,31.632a17.436,17.436,0,1,0,34.861,0,18.006,18.006,0,0,0-5.881-13.372" transform="translate(-19.216 -4.846)" fill="#fff"/>
      <path id="Trazado_138062" data-name="Trazado 138062" d="M52.7,48.933c-15.448,0-30.18-7.071-43.8-21.026L7.794,26.775l1-1.228A66.752,66.752,0,0,1,20.5,14.871C27.291,9.938,38.144,3.933,51.294,3.334,67.5,2.594,83.343,10.028,98.37,25.426l1.169,1.2-1.126,1.238A71.041,71.041,0,0,1,85.8,38.226c-7.24,4.75-18.7,10.462-32.2,10.7-.3.005-.6.008-.892.008M12.6,26.594C25.2,39.065,38.678,45.381,52.705,45.381c.265,0,.528,0,.793-.006,12.621-.214,23.419-5.587,30.254-10.057A73.3,73.3,0,0,0,94.6,26.672C80.687,12.868,66.18,6.212,51.456,6.882,31.325,7.8,16.555,22.294,12.6,26.594" transform="translate(-2.742 -1.155)" fill="#3d4451"/>
      <path id="Trazado_138063" data-name="Trazado 138063" d="M67.4,47.962a20.861,20.861,0,0,1-20.6-21.072,20.6,20.6,0,1,1,41.19,0A20.861,20.861,0,0,1,67.4,47.962m0-39.607A18.322,18.322,0,0,0,49.342,26.891a18.064,18.064,0,1,0,36.116,0A18.322,18.322,0,0,0,67.4,8.355" transform="translate(-16.469 -2.047)" fill="#3d4451"/>
      <path id="Trazado_138064" data-name="Trazado 138064" d="M82.009,25.158a3.809,3.809,0,0,1-7.457-1.194,3.926,3.926,0,0,1,1.919-3.392,11.466,11.466,0,0,0-4.27-.823A12.047,12.047,0,1,0,83.954,31.792a12.2,12.2,0,0,0-1.945-6.634" transform="translate(-21.269 -6.949)" fill="#3d4451"/>
      <path id="Trazado_138065" data-name="Trazado 138065" d="M140.7,84.005c-3.595,0-6.433-1.077-8.436-3.2a12.31,12.31,0,0,1-2.961-8.428l.01-.169,8.73-30.442L150.29,71.24l.03.136c.05.231,1.188,5.719-1.813,9.436-1.711,2.119-4.339,3.194-7.809,3.194M132.339,72.7a9.2,9.2,0,0,0,2.154,6.034A8.2,8.2,0,0,0,140.7,80.96c2.505,0,4.335-.694,5.44-2.062,1.872-2.319,1.347-6.061,1.226-6.766L138.57,50.971Z" transform="translate(-45.494 -14.696)" fill="#3d4451"/>
      <path id="Trazado_138066" data-name="Trazado 138066" d="M146.91,95.342c-.087,0-.141,0-.154,0a1.015,1.015,0,0,1,.113-2.027,3.5,3.5,0,0,0,2.335-.852,3.841,3.841,0,0,0,.983-2.886,1.015,1.015,0,0,1,2.03,0,5.749,5.749,0,0,1-1.633,4.376,5.531,5.531,0,0,1-3.674,1.393" transform="translate(-51.302 -31.161)" fill="#3d4451"/>
      <path id="Trazado_138067" data-name="Trazado 138067" d="M102.532,20.255a1.517,1.517,0,0,1-1.034-.406c-.043-.04-4.592-4.187-13.438-8.309C79.9,7.737,66.3,3.178,47.881,3.047,29.613,2.92,18.331,7.411,12.082,11.2,5.35,15.288,2.864,19.454,2.84,19.5A1.522,1.522,0,0,1,.2,17.975c.11-.192,2.783-4.754,10.079-9.239C16.791,4.733,28.442,0,47.115,0q.392,0,.787,0C66.951.137,81.03,4.886,89.486,8.846c9.226,4.32,13.887,8.59,14.081,8.769a1.522,1.522,0,0,1-1.035,2.639" transform="translate(0 0)" fill="#3d4451"/>
    </g>
  </g>
</svg>
