<svg xmlns="http://www.w3.org/2000/svg" xmlns:xlink="http://www.w3.org/1999/xlink" width="139.828" height="126.13" viewBox="0 0 139.828 126.13">
  <defs>
    <clipPath id="clip-path">
      <rect id="Rectángulo_8894" data-name="Rectángulo 8894" width="139.829" height="126.13" fill="none"/>
    </clipPath>
  </defs>
  <g id="Grupo_66616" data-name="Grupo 66616" transform="translate(0)">
    <g id="Grupo_66615" data-name="Grupo 66615" transform="translate(0 0)" clip-path="url(#clip-path)">
      <path id="Trazado_138088" data-name="Trazado 138088" d="M99.074,123.226H75.525c.084,0,.918-2.346,1-2.514q.865-1.841,1.712-3.692c1.257-2.761,2.7-5.05,3.18-8.193a47.216,47.216,0,0,0,.167-9.45c-.087-1.754-.174-3.509-.305-5.26-.069-.921-.153-1.84-.246-2.758-.1-1.014-.308-1.149.362-1.443.716-.314,2.095-.011,2.876-.051.71-.036,1.425-.117,2.136-.117h6.447a61.5,61.5,0,0,0-.284,16.739c.853,7.109,4.621,12.809,6.509,16.738" transform="translate(-26.574 -31.58)" fill="#fff"/>
      <rect id="Rectángulo_8889" data-name="Rectángulo 8889" width="26.649" height="3.618" transform="matrix(1, -0.003, 0.003, 1, 42.822, 64.816)" fill="#c6a47f"/>
      <path id="Trazado_138089" data-name="Trazado 138089" d="M97.126,121.232h-45.7l.712-1.421c.45-.9.981-1.87,1.543-2.9,2.316-4.239,5.2-9.517,5.907-15.773a62.836,62.836,0,0,0-.325-16.555l-.172-1.13H89.451L89.259,84.6a59.8,59.8,0,0,0-.325,17.618c.763,5.856,3.586,10.776,5.855,14.729.582,1.015,1.132,1.974,1.59,2.852Zm-42.5-1.963H93.857c-.245-.434-.5-.885-.769-1.347-2.231-3.887-5.286-9.211-6.1-15.452a61.745,61.745,0,0,1,.154-17.053H61.362a64.846,64.846,0,0,1,.172,15.943c-.752,6.639-3.737,12.1-6.135,16.493-.266.486-.524.959-.769,1.416" transform="translate(-18.094 -29.365)" fill="#3d4451"/>
      <path id="Trazado_138090" data-name="Trazado 138090" d="M93.084,89.4H62.8A2.4,2.4,0,0,1,60.4,87.01V85.492A2.4,2.4,0,0,1,62.8,83.1H93.084a2.4,2.4,0,0,1,2.394,2.394V87.01A2.4,2.4,0,0,1,93.084,89.4" transform="translate(-21.254 -29.239)" fill="#f04f4c"/>
      <path id="Trazado_138091" data-name="Trazado 138091" d="M92.523,89.876H62.237a3.432,3.432,0,0,1-3.428-3.427V84.93A3.432,3.432,0,0,1,62.237,81.5H92.523a3.432,3.432,0,0,1,3.428,3.427v1.519a3.432,3.432,0,0,1-3.428,3.427M62.237,83.57a1.362,1.362,0,0,0-1.36,1.36v1.519a1.362,1.362,0,0,0,1.36,1.36H92.523a1.362,1.362,0,0,0,1.36-1.36V84.93a1.362,1.362,0,0,0-1.36-1.36Z" transform="translate(-20.693 -28.678)" fill="#3d4451"/>
      <path id="Trazado_138092" data-name="Trazado 138092" d="M71.113,67.018a1.01,1.01,0,0,1-1-.841c-.032-.19-.757-4.689,1.99-7.941,1.6-1.9,4.011-2.946,7.167-3.123.121-1.85.7-5.825,3.411-8.608a10.1,10.1,0,0,1,7.555-2.924,1.011,1.011,0,1,1,0,2.023,8.164,8.164,0,0,0-6.1,2.3c-2.965,3.038-2.876,8.113-2.874,8.164l.025,1.036-1.036,0c-3.012,0-5.23.815-6.595,2.422-2.143,2.524-1.556,6.273-1.55,6.31A1.012,1.012,0,0,1,71.282,67a.991.991,0,0,1-.169.014" transform="translate(-24.633 -15.335)" fill="#3d4451"/>
      <path id="Trazado_138093" data-name="Trazado 138093" d="M25.027,84.048h3.5l.325,38.2H24.717Z" transform="translate(-8.697 -29.573)" fill="#7cbc31"/>
      <path id="Trazado_138094" data-name="Trazado 138094" d="M17.751,121.467l.733-44.507,9.653,0,.75,44.507ZM20.3,78.808l-.672,40.81h7.376l-.688-40.81Z" transform="translate(-6.246 -27.079)" fill="#3d4451"/>
      <path id="Trazado_138095" data-name="Trazado 138095" d="M2.354,175.315V140.631h108.1v34.684" transform="translate(-0.828 -49.483)" fill="#f5fafc"/>
      <path id="Trazado_138096" data-name="Trazado 138096" d="M112.847,174.487h-3.052V148.7c0-4-2.235-7.37-4.882-7.37H7.934c-2.646,0-4.882,3.375-4.882,7.37v25.788H0V148.7c0-5.746,3.56-10.422,7.934-10.422h96.979c4.374,0,7.934,4.676,7.934,10.422Z" transform="translate(0 -48.655)" fill="#3d4451"/>
      <path id="Trazado_138097" data-name="Trazado 138097" d="M14.485,179.9V160.45a6.794,6.794,0,0,1,6.793-6.793h81.686a6.793,6.793,0,0,1,6.793,6.793V179.9" transform="translate(-5.097 -54.067)" fill="#fff"/>
      <path id="Trazado_138098" data-name="Trazado 138098" d="M162.5,122.69H105.3c3.044-7.618,8.937-18.534,10.158-32.052a134.562,134.562,0,0,0-.443-28.362h37.767a128.277,128.277,0,0,0-.444,30.206c1.333,12.831,7.213,23.118,10.158,30.207" transform="translate(-37.052 -21.913)" fill="#f5fafc"/>
      <path id="Trazado_138099" data-name="Trazado 138099" d="M165.548,122.69H133.054c.115,0,1.267-4.234,1.376-4.537q1.193-3.324,2.361-6.663c1.514-4.348,3.623-9.125,4.408-13.794.8-4.774.361-10.069.218-14.91q-.3-10.282-1.246-20.51h16.787a144.858,144.858,0,0,0-.391,30.208c1.176,12.829,6.376,23.116,8.981,30.206" transform="translate(-46.817 -21.913)" fill="#fff"/>
      <rect id="Rectángulo_8890" data-name="Rectángulo 8890" width="35.866" height="4.135" transform="translate(78.877 55.306) rotate(-0.198)" fill="#c6a47f"/>
      <path id="Trazado_138100" data-name="Trazado 138100" d="M87.927,180.708V167.671c0-6.936,5.161-12.559,11.527-12.559h57.988c6.366,0,11.527,5.623,11.527,12.559v13.037" transform="translate(-30.938 -54.579)" fill="#f5fafc"/>
      <path id="Trazado_138101" data-name="Trazado 138101" d="M163.578,123.4H101.769l.85-2.127c.6-1.51,1.317-3.147,2.073-4.88,3.128-7.177,7.021-16.108,7.981-26.735a133.137,133.137,0,0,0-.439-28.034l-.211-1.738h41.29l-.235,1.756a126.645,126.645,0,0,0-.438,29.841c1.034,9.95,4.847,18.279,7.912,24.971.783,1.71,1.522,3.324,2.136,4.8Zm-57.2-3.1h52.511c-.366-.819-.758-1.674-1.161-2.555-2.992-6.534-7.091-15.484-8.177-25.941a129.819,129.819,0,0,1,.226-28.817H115.513a136.293,136.293,0,0,1,.248,26.951c-1,11.126-5.009,20.313-8.227,27.695-.4.919-.789,1.811-1.154,2.666" transform="translate(-35.809 -21.071)" fill="#3d4451"/>
      <path id="Trazado_138102" data-name="Trazado 138102" d="M169.791,179.732h-3.6V166.695c0-5.934-4.365-10.761-9.729-10.761H98.478c-5.365,0-9.729,4.827-9.729,10.761v13.037h-3.6V166.695c0-7.916,5.978-14.357,13.325-14.357h57.988c7.347,0,13.325,6.441,13.325,14.357Z" transform="translate(-29.962 -53.603)" fill="#3d4451"/>
      <path id="Trazado_138103" data-name="Trazado 138103" d="M156.159,69.586H117.789a3.036,3.036,0,0,1-3.027-3.027V64.733a3.036,3.036,0,0,1,3.027-3.027h38.369a3.036,3.036,0,0,1,3.027,3.027v1.825a3.036,3.036,0,0,1-3.027,3.027" transform="translate(-40.38 -21.712)" fill="#f04f4c"/>
      <path id="Trazado_138104" data-name="Trazado 138104" d="M155.316,70.294H116.948a4.583,4.583,0,0,1-4.578-4.578V63.891a4.583,4.583,0,0,1,4.578-4.578h38.368a4.584,4.584,0,0,1,4.578,4.578v1.825a4.583,4.583,0,0,1-4.578,4.578m-38.368-7.88a1.479,1.479,0,0,0-1.477,1.477v1.825a1.479,1.479,0,0,0,1.477,1.477h38.368a1.478,1.478,0,0,0,1.477-1.477V63.891a1.478,1.478,0,0,0-1.477-1.477Z" transform="translate(-39.539 -20.87)" fill="#3d4451"/>
      <path id="Trazado_138105" data-name="Trazado 138105" d="M126.439,37.594a1.515,1.515,0,0,1-1.506-1.37,13.343,13.343,0,0,1,8.356-13.587c-.31-2.764-.452-9.255,3.9-14.656C141.466,2.686,148.778,0,158.926,0a1.515,1.515,0,0,1,0,3.029c-9.17,0-15.682,2.3-19.355,6.83-4.679,5.774-3.132,13.4-3.116,13.481l.29,1.366-1.337.4a9.7,9.7,0,0,0-6.815,6.313,12.178,12.178,0,0,0-.644,4.512,1.515,1.515,0,0,1-1.363,1.653,1.386,1.386,0,0,1-.146.007" transform="translate(-43.943 0)" fill="#3d4451"/>
      <path id="Trazado_138106" data-name="Trazado 138106" d="M104.832,183.09v-10.8c0-5.747,4.238-10.406,9.466-10.406h47.618c5.228,0,9.466,4.659,9.466,10.406v10.8" transform="translate(-36.886 -56.961)" fill="#fff"/>
      <line id="Línea_109" data-name="Línea 109" y2="8.62" transform="translate(125.598 111.951)" fill="#fff"/>
      <path id="Trazado_138107" data-name="Trazado 138107" d="M192.946,182.052a1.542,1.542,0,0,1-1.541-1.541v-8.62a1.541,1.541,0,0,1,3.083,0v8.62a1.542,1.542,0,0,1-1.541,1.541" transform="translate(-67.348 -59.94)" fill="#3d4451"/>
      <line id="Línea_110" data-name="Línea 110" y2="8.62" transform="translate(111.729 111.951)" fill="#fff"/>
      <path id="Trazado_138108" data-name="Trazado 138108" d="M171.548,182.052a1.542,1.542,0,0,1-1.541-1.541v-8.62a1.541,1.541,0,0,1,3.083,0v8.62a1.542,1.542,0,0,1-1.541,1.541" transform="translate(-59.819 -59.94)" fill="#3d4451"/>
      <line id="Línea_111" data-name="Línea 111" y2="8.62" transform="translate(97.861 111.951)" fill="#fff"/>
      <path id="Trazado_138109" data-name="Trazado 138109" d="M150.151,182.052a1.542,1.542,0,0,1-1.541-1.541v-8.62a1.541,1.541,0,0,1,3.083,0v8.62a1.542,1.542,0,0,1-1.541,1.541" transform="translate(-52.29 -59.94)" fill="#3d4451"/>
      <line id="Línea_112" data-name="Línea 112" y2="8.62" transform="translate(83.992 111.951)" fill="#fff"/>
      <path id="Trazado_138110" data-name="Trazado 138110" d="M128.753,182.052a1.542,1.542,0,0,1-1.541-1.541v-8.62a1.541,1.541,0,0,1,3.083,0v8.62a1.542,1.542,0,0,1-1.541,1.541" transform="translate(-44.761 -59.94)" fill="#3d4451"/>
      <line id="Línea_113" data-name="Línea 113" y2="8.62" transform="translate(70.123 111.951)" fill="#fff"/>
      <path id="Trazado_138111" data-name="Trazado 138111" d="M107.355,182.052a1.542,1.542,0,0,1-1.541-1.541v-8.62a1.541,1.541,0,0,1,3.083,0v8.62a1.542,1.542,0,0,1-1.541,1.541" transform="translate(-37.232 -59.94)" fill="#3d4451"/>
      <path id="Trazado_138112" data-name="Trazado 138112" d="M166.746,42.763a1.163,1.163,0,0,1-1.163-1.163,3.1,3.1,0,0,0-6.2,0,1.163,1.163,0,0,1-2.326,0,5.429,5.429,0,0,1,10.853,0,1.163,1.163,0,0,1-1.163,1.163" transform="translate(-55.262 -12.782)" fill="#3d4451"/>
      <path id="Trazado_138113" data-name="Trazado 138113" d="M101.888,69a1.024,1.024,0,0,1-1.024-1.024,1.832,1.832,0,1,0-3.646,0,1.024,1.024,0,1,1-2.047,0,3.875,3.875,0,1,1,7.741,0A1.024,1.024,0,0,1,101.888,69" transform="translate(-33.487 -22.487)" fill="#3d4451"/>
      <path id="Trazado_138114" data-name="Trazado 138114" d="M182.615,51.294a1.415,1.415,0,0,1-.7-2.647,5.477,5.477,0,0,0,2.173-7.5,1.415,1.415,0,0,1,2.543-1.241A8.258,8.258,0,0,1,183.3,51.114a1.4,1.4,0,0,1-.688.18" transform="translate(-63.757 -13.762)" fill="#3d4451"/>
      <path id="Trazado_138115" data-name="Trazado 138115" d="M184.458,31.048a4.642,4.642,0,1,1,4.413-4.637,4.534,4.534,0,0,1-4.413,4.637m0-6.947a2.323,2.323,0,1,0,2.086,2.311,2.209,2.209,0,0,0-2.086-2.311" transform="translate(-63.351 -7.662)" fill="#3d4451"/>
      <rect id="Rectángulo_8891" data-name="Rectángulo 8891" width="7.448" height="7.448" transform="translate(12.442 107.585)" fill="#fdc345"/>
      <path id="Trazado_138116" data-name="Trazado 138116" d="M27,173.792H18.006V164.8H27Zm-7.448-1.541h5.907v-5.907H19.547Z" transform="translate(-6.336 -57.989)" fill="#3d4451"/>
      <rect id="Rectángulo_8892" data-name="Rectángulo 8892" width="7.448" height="7.448" transform="translate(26.952 107.713)" fill="#fdc345"/>
      <path id="Trazado_138117" data-name="Trazado 138117" d="M49.384,173.99H40.4V165h8.989Zm-7.448-1.541h5.907v-5.907H41.936Z" transform="translate(-14.213 -58.058)" fill="#3d4451"/>
      <rect id="Rectángulo_8893" data-name="Rectángulo 8893" width="7.448" height="7.448" transform="translate(41.592 107.713)" fill="#fdc345"/>
      <path id="Trazado_138118" data-name="Trazado 138118" d="M71.971,173.99H62.982V165h8.989Zm-7.448-1.541H70.43v-5.907H64.523Z" transform="translate(-22.161 -58.058)" fill="#3d4451"/>
    </g>
  </g>
</svg>
