<svg xmlns="http://www.w3.org/2000/svg" xmlns:xlink="http://www.w3.org/1999/xlink" width="93.076" height="109.681" viewBox="0 0 93.076 109.681">
  <defs>
    <clipPath id="clip-path">
      <rect id="Rectángulo_8888" data-name="Rectángulo 8888" width="93.076" height="109.681" fill="none"/>
    </clipPath>
  </defs>
  <g id="Grupo_66614" data-name="Grupo 66614" transform="translate(0 0)">
    <g id="Grupo_66613" data-name="Grupo 66613" transform="translate(0 0)" clip-path="url(#clip-path)">
      <path id="Trazado_138068" data-name="Trazado 138068" d="M53.44,9.677H89.78c3.013,0,5.479,3.292,5.479,7.316V35.77c0,4.024-2.466,7.316-5.479,7.316H85.489l.281,11.185L77.532,43.086H53.44c-3.013,0-5.479-3.293-5.479-7.316V16.993c0-4.024,2.466-7.316,5.479-7.316" transform="translate(-16.876 -3.405)" fill="#c6a47f"/>
      <path id="Trazado_138069" data-name="Trazado 138069" d="M59.319,19.651H20.036a5.786,5.786,0,0,0-5.922,5.6V39.639a5.786,5.786,0,0,0,5.922,5.6h4.639L23.613,56.23l9.662-10.987H59.319a5.787,5.787,0,0,0,5.922-5.6V25.255a5.787,5.787,0,0,0-5.922-5.6" transform="translate(-4.966 -6.915)" fill="#fdc345"/>
      <path id="Trazado_138070" data-name="Trazado 138070" d="M68.876,14.941H43.413V32.624c0,5.309,2.869,9.652,6.375,9.652H71.553a6.13,6.13,0,0,0,3.489-5.5V21.062a6.162,6.162,0,0,0-6.166-6.121" transform="translate(-15.275 -5.257)" fill="#f5fafc"/>
      <path id="Trazado_138071" data-name="Trazado 138071" d="M68.927,19.658H48.871V33.586c0,4.181,2.259,7.6,5.021,7.6H71.035a4.83,4.83,0,0,0,2.748-4.334V24.479a4.854,4.854,0,0,0-4.856-4.821" transform="translate(-17.196 -6.917)" fill="#fff"/>
      <path id="Trazado_138072" data-name="Trazado 138072" d="M29.265,121.242a10.114,10.114,0,0,0,1.02-20.18,10.114,10.114,0,0,0-1.02,20.18" transform="translate(-7.084 -35.556)" fill="#fff"/>
      <path id="Trazado_138073" data-name="Trazado 138073" d="M40.59,157.417a3.422,3.422,0,0,0,3.111-4.192c-1.661-9.222-8.478-17.479-16.648-17.487s-15,8.233-16.683,17.452a3.422,3.422,0,0,0,3.1,4.2Z" transform="translate(-3.626 -47.762)" fill="#fff"/>
      <path id="Trazado_138074" data-name="Trazado 138074" d="M23.972,117.547c-.212,0-.423-.006-.636-.017a12.413,12.413,0,1,1,.636.017m-.491-2.847a9.57,9.57,0,1,0-9.052-9.062,9.611,9.611,0,0,0,9.052,9.062" transform="translate(-4.076 -32.632)" fill="#3d4451"/>
      <path id="Trazado_138075" data-name="Trazado 138075" d="M35.937,153.843h-.005L5.025,153.81A5.035,5.035,0,0,1,.1,147.774a26.177,26.177,0,0,1,7.124-13.325A18.987,18.987,0,0,1,20.487,128.6H20.5a18.982,18.982,0,0,1,13.268,5.881,26.18,26.18,0,0,1,7.1,13.339,5.035,5.035,0,0,1-4.932,6.027m0-2.835h0a2.181,2.181,0,0,0,1.692-.8,2.211,2.211,0,0,0,.46-1.84c-1.652-8.319-8.682-16.929-17.588-16.938h-.014c-8.9,0-15.938,8.59-17.607,16.9a2.212,2.212,0,0,0,.456,1.842,2.181,2.181,0,0,0,1.692.8Z" transform="translate(0 -45.249)" fill="#3d4451"/>
      <path id="Trazado_138076" data-name="Trazado 138076" d="M24,117.527c-.211,0-.421-.005-.633-.016a12.4,12.4,0,1,1,.633.016m-.493-2.761a9.613,9.613,0,1,0-9.093-9.1A9.63,9.63,0,0,0,23.5,114.766Z" transform="translate(-4.099 -32.655)" fill="#3d4451"/>
      <path id="Trazado_138077" data-name="Trazado 138077" d="M35.96,153.823h0l-30.908-.032a4.992,4.992,0,0,1-4.881-5.985,26.137,26.137,0,0,1,7.113-13.3,18.942,18.942,0,0,1,13.232-5.84h.016a18.941,18.941,0,0,1,13.238,5.868,26.128,26.128,0,0,1,7.085,13.317,4.991,4.991,0,0,1-4.89,5.974m0-2.748h0a2.222,2.222,0,0,0,1.725-.815,2.252,2.252,0,0,0,.469-1.876c-1.92-9.668-9.5-16.964-17.629-16.973h-.014c-8.124,0-15.711,7.278-17.649,16.936a2.25,2.25,0,0,0,.465,1.877,2.224,2.224,0,0,0,1.725.819Z" transform="translate(-0.024 -45.272)" fill="#3d4451"/>
      <path id="Trazado_138078" data-name="Trazado 138078" d="M107.965,122.327A10.629,10.629,0,1,0,97.908,112.26a10.631,10.631,0,0,0,10.057,10.067" transform="translate(-34.445 -35.568)" fill="#fff"/>
      <path id="Trazado_138079" data-name="Trazado 138079" d="M120.081,157.455a3.5,3.5,0,0,0,3.43-4.192c-1.832-9.223-9.351-17.48-18.358-17.489s-16.542,8.232-18.393,17.451a3.5,3.5,0,0,0,3.421,4.2Z" transform="translate(-30.503 -47.774)" fill="#fff"/>
      <path id="Trazado_138080" data-name="Trazado 138080" d="M100.491,118.8q-.307,0-.615-.016a12.043,12.043,0,1,1,.615.016m-.474-2.755a9.258,9.258,0,1,0-8.757-8.767,9.278,9.278,0,0,0,8.757,8.767" transform="translate(-31.142 -33.358)" fill="#3d4451"/>
      <path id="Trazado_138081" data-name="Trazado 138081" d="M112.066,153.915h0l-29.9-.031a4.871,4.871,0,0,1-4.764-5.84,25.321,25.321,0,0,1,6.892-12.89,18.366,18.366,0,0,1,12.83-5.661h.016a18.363,18.363,0,0,1,12.836,5.688,25.319,25.319,0,0,1,6.866,12.9,4.871,4.871,0,0,1-4.771,5.83m0-2.742h0a2.111,2.111,0,0,0,1.637-.773,2.135,2.135,0,0,0,.445-1.78c-1.6-8.047-8.4-16.376-17.014-16.385H97.12c-8.608,0-15.419,8.31-17.034,16.35a2.137,2.137,0,0,0,.441,1.782,2.11,2.11,0,0,0,1.637.776Z" transform="translate(-27.199 -45.564)" fill="#3d4451"/>
      <path id="Trazado_138082" data-name="Trazado 138082" d="M100.489,118.8c-.2,0-.409-.005-.615-.016a12.047,12.047,0,1,1,.615.016m-.474-2.76a9.255,9.255,0,1,0-8.754-8.764A9.293,9.293,0,0,0,100.016,116.042Z" transform="translate(-31.14 -33.356)" fill="#3d4451"/>
      <path id="Trazado_138083" data-name="Trazado 138083" d="M112.065,153.916h0l-29.9-.031a4.875,4.875,0,0,1-4.766-5.844,25.329,25.329,0,0,1,6.894-12.892,18.368,18.368,0,0,1,12.832-5.663h.016a18.368,18.368,0,0,1,12.838,5.689,25.329,25.329,0,0,1,6.866,12.906,4.875,4.875,0,0,1-4.774,5.834m0-2.748h0a2.107,2.107,0,0,0,1.634-.772,2.135,2.135,0,0,0,.445-1.779c-1.6-8.046-8.4-16.374-17.012-16.383h-.014c-8.607,0-15.417,8.309-17.031,16.348a2.136,2.136,0,0,0,.441,1.779,2.11,2.11,0,0,0,1.635.775Z" transform="translate(-27.197 -45.562)" fill="#3d4451"/>
      <path id="Trazado_138084" data-name="Trazado 138084" d="M15.873,58.483l.92-15.359H12.981a7.572,7.572,0,0,1-7.575-7.553V19.138a7.573,7.573,0,0,1,7.575-7.553H55.6a7.573,7.573,0,0,1,7.575,7.553V35.572A7.572,7.572,0,0,1,55.6,43.125h-27.7Zm-2.892-44.6a5.27,5.27,0,0,0-5.275,5.253V35.572a5.27,5.27,0,0,0,5.275,5.253h6.255l-.625,10.436,8.176-10.436H55.6a5.27,5.27,0,0,0,5.276-5.253V19.138A5.27,5.27,0,0,0,55.6,13.885Z" transform="translate(-1.902 -4.076)" fill="#3d4451"/>
      <path id="Trazado_138085" data-name="Trazado 138085" d="M89.821,55.035l-13.2-15.907H48.695c-4.354,0-7.9-4.2-7.9-9.353V9.352C40.8,4.2,44.341,0,48.695,0H91.813c4.354,0,7.9,4.2,7.9,9.352V29.775c0,5.157-3.542,9.353-7.9,9.353H88.26ZM48.695,2.79c-2.767,0-5.1,3-5.1,6.562V29.775c0,3.557,2.338,6.562,5.1,6.562H77.936l8.218,9.907-.973-9.907h6.631c2.767,0,5.1-3.005,5.1-6.562V9.352c0-3.557-2.338-6.562-5.1-6.562Z" transform="translate(-14.356 0)" fill="#3d4451"/>
      <path id="Trazado_138086" data-name="Trazado 138086" d="M70.806,27.836q-.008-.178-.026-.358a5.066,5.066,0,0,0-4.6-4.639,4.8,4.8,0,0,0-4.429,2.529,4.8,4.8,0,0,0-4.456-2.527,5.072,5.072,0,0,0-4.584,4.731,5.66,5.66,0,0,0,.163,1.934,2.354,2.354,0,0,0,.536.99L61.7,39.56l8.041-8.807a4.1,4.1,0,0,0,1.064-2.918" transform="translate(-18.539 -8.034)" fill="#f04f4c"/>
      <path id="Trazado_138087" data-name="Trazado 138087" d="M61.031,40.719l-9.2-10.061a3.607,3.607,0,0,1-.819-1.509,6.876,6.876,0,0,1-.2-2.356,6.312,6.312,0,0,1,5.742-5.857,5.9,5.9,0,0,1,4.529,1.737,5.924,5.924,0,0,1,4.495-1.739,6.315,6.315,0,0,1,5.764,5.745c.015.146.026.29.032.434a5.352,5.352,0,0,1-1.386,3.8ZM56.893,23.4c-.065,0-.131,0-.2.006a3.832,3.832,0,0,0-3.426,3.6,4.419,4.419,0,0,0,.126,1.511,1.136,1.136,0,0,0,.253.473l7.38,8.067,7.13-7.809a2.86,2.86,0,0,0,.742-2.034c0-.093-.01-.187-.02-.282A3.832,3.832,0,0,0,65.442,23.4a3.577,3.577,0,0,0-3.287,1.9l-1.076,1.914L60,25.3a3.6,3.6,0,0,0-3.11-1.906" transform="translate(-17.868 -7.363)" fill="#3d4451"/>
    </g>
  </g>
</svg>
