<svg xmlns="http://www.w3.org/2000/svg" xmlns:xlink="http://www.w3.org/1999/xlink" width="107.336" height="104.232" viewBox="0 0 107.336 104.232">
  <defs>
    <clipPath id="clip-path">
      <rect id="Rectángulo_8886" data-name="Rectángulo 8886" width="107.336" height="104.232" fill="none"/>
    </clipPath>
  </defs>
  <g id="Grupo_66610" data-name="Grupo 66610" transform="translate(0 0)">
    <g id="Grupo_66609" data-name="Grupo 66609" transform="translate(0 0)" clip-path="url(#clip-path)">
      <path id="Trazado_138047" data-name="Trazado 138047" d="M19.529,71.566c0-23.632,19.968-42.79,44.6-42.79s44.6,19.158,44.6,42.79-19.968,42.79-44.6,42.79-44.6-19.158-44.6-42.79" transform="translate(-6.872 -10.125)" fill="#fff"/>
      <path id="Trazado_138048" data-name="Trazado 138048" d="M64.233,86.954a19.06,19.06,0,1,1,19.06-19.06,19.081,19.081,0,0,1-19.06,19.06m0-34.852A15.792,15.792,0,1,0,80.025,67.895,15.81,15.81,0,0,0,64.233,52.1" transform="translate(-15.895 -17.183)" fill="#3d4451"/>
      <path id="Trazado_138049" data-name="Trazado 138049" d="M79.381,71.6q-.009-.2-.029-.393a5.571,5.571,0,0,0-5.061-5.1,5.282,5.282,0,0,0-4.871,2.781,5.28,5.28,0,0,0-4.9-2.78,5.579,5.579,0,0,0-5.042,5.2,6.221,6.221,0,0,0,.18,2.127,2.606,2.606,0,0,0,.589,1.09L69.366,84.5l8.845-9.685a4.518,4.518,0,0,0,1.17-3.21" transform="translate(-20.92 -23.258)" fill="#f04f4c"/>
      <path id="Trazado_138050" data-name="Trazado 138050" d="M68.63,85.773,58.507,74.708a3.969,3.969,0,0,1-.9-1.659,7.541,7.541,0,0,1-.22-2.591A6.942,6.942,0,0,1,63.7,64.016a6.5,6.5,0,0,1,4.981,1.91,6.5,6.5,0,0,1,4.943-1.912,6.946,6.946,0,0,1,6.339,6.319q.024.24.034.477a5.884,5.884,0,0,1-1.524,4.181ZM64.079,66.721c-.072,0-.144,0-.216.006a4.215,4.215,0,0,0-3.768,3.965,4.854,4.854,0,0,0,.139,1.662,1.241,1.241,0,0,0,.279.52l8.116,8.872,7.842-8.588a3.144,3.144,0,0,0,.816-2.237c0-.1-.012-.205-.022-.309a4.214,4.214,0,0,0-3.782-3.886,3.947,3.947,0,0,0-3.615,2.091l-1.184,2.1-1.184-2.1a3.954,3.954,0,0,0-3.42-2.1" transform="translate(-20.182 -22.521)" fill="#3d4451"/>
      <path id="Trazado_138051" data-name="Trazado 138051" d="M57.315,92.779a31.8,31.8,0,1,1,31.8-31.8,31.838,31.838,0,0,1-31.8,31.8m0-58.433A26.631,26.631,0,1,0,83.946,60.977,26.661,26.661,0,0,0,57.315,34.346" transform="translate(-8.977 -10.266)" fill="#3d4451"/>
      <path id="Trazado_138052" data-name="Trazado 138052" d="M48.338,100.337A48.338,48.338,0,1,1,96.676,52a48.392,48.392,0,0,1-48.338,48.338m0-88.942A40.6,40.6,0,1,0,88.942,52a40.65,40.65,0,0,0-40.6-40.6" transform="translate(0 -1.288)" fill="#3d4451"/>
      <path id="Trazado_138053" data-name="Trazado 138053" d="M74.388,63.16a1.81,1.81,0,0,1-1.163-3.2L109.944,29.2a1.81,1.81,0,0,1,2.325,2.775L75.549,62.738a1.8,1.8,0,0,1-1.161.423" transform="translate(-25.537 -10.125)" fill="#3d4451"/>
      <path id="Trazado_138054" data-name="Trazado 138054" d="M115.27,28.9l-2.251-12.864L126.846,4.7l1.608,14.7Z" transform="translate(-39.767 -1.655)" fill="#f04f4c"/>
      <path id="Trazado_138055" data-name="Trazado 138055" d="M113.231,29.983l-2.84-16.233L127.167,0l2.022,18.49Zm.567-14.968,1.661,9.5,10.41-7.5L124.677,6.1Z" transform="translate(-38.842)" fill="#3d4451"/>
      <path id="Trazado_138056" data-name="Trazado 138056" d="M117.557,38.126l12.315,5.7L145.2,34.405l-14.347-5.634Z" transform="translate(-41.364 -10.124)" fill="#f04f4c"/>
      <path id="Trazado_138057" data-name="Trazado 138057" d="M128.279,44.643l-15.546-7.2,16.209-11.405L147,33.134Zm-9.292-7.759,9.083,4.2L140,33.755l-10.633-4.175Z" transform="translate(-39.667 -9.163)" fill="#3d4451"/>
    </g>
  </g>
</svg>
